<svg xmlns="http://www.w3.org/2000/svg" viewBox="0 0 460 180" role="img" aria-label="NiveshNadi logo">
  <defs>
    <linearGradient id="face" x1="58" x2="164" y1="24" y2="146" gradientUnits="userSpaceOnUse">
      <stop offset="0" stop-color="#11a487"/>
      <stop offset=".48" stop-color="#23659a"/>
      <stop offset="1" stop-color="#d8973c"/>
    </linearGradient>
    <linearGradient id="side" x1="43" x2="158" y1="43" y2="158" gradientUnits="userSpaceOnUse">
      <stop offset="0" stop-color="#d9fff6"/>
      <stop offset=".6" stop-color="#3b78a3"/>
      <stop offset="1" stop-color="#8a5a28"/>
    </linearGradient>
    <filter id="shadow" x="-20%" y="-20%" width="140%" height="140%">
      <feDropShadow dx="0" dy="12" stdDeviation="12" flood-color="#11253f" flood-opacity=".18"/>
    </filter>
  </defs>
  <g filter="url(#shadow)">
    <path d="M56 142V35l22-13 63 78V35l22-13v107l-22 13-63-78v65z" fill="url(#side)" opacity=".72"/>
    <path d="M46 148V41h25l63 78V41h22v107h-25L68 70v78z" fill="url(#face)"/>
    <path d="M49 148c30-25 70-31 111-10" fill="none" stroke="#f5c36b" stroke-width="9" stroke-linecap="round"/>
    <path d="M52 139c27-17 63-18 101-1" fill="none" stroke="#dff8f2" stroke-width="5" stroke-linecap="round" opacity=".88"/>
  </g>
  <g fill="#11253f">
    <text x="194" y="82" font-family="Inter, Segoe UI, Arial, sans-serif" font-size="42" font-weight="800">NiveshNadi</text>
    <text x="196" y="116" font-family="Inter, Segoe UI, Arial, sans-serif" font-size="17" font-weight="600" fill="#49657e">Mutual fund research, simplified.</text>
  </g>
</svg>
